<svg width="259.5" height="43.7" xmlns="http://www.w3.org/2000/svg" xmlns:xlink="http://www.w3.org/1999/xlink">
 <style type="text/css">.st0{clip-path:url(#SVGID_2_);}
	.st1{fill:#040404;}
	.st2{clip-path:url(#SVGID_4_);}
	.st3{clip-path:url(#SVGID_6_);}</style>
 <g>
  <title>background</title>
  <rect fill="none" id="canvas_background" height="402" width="582" y="-1" x="-1"/>
 </g>
 <g>
  <title>Layer 1</title>
  <g id="svg_1">
   <g id="svg_2">
    <defs>
     <path d="m22.3,38c-1.2,-0.2 -2,-1.4 -1.8,-2.6l0.4,-2.2l3.9,0.7l0.4,-2.6l-2.5,-0.3c-1.3,-0.2 -2.2,-1.5 -1.9,-2.8l0.4,-2.3l4.6,0.8l0.4,-2.6l-3,-0.5c-1.4,-0.2 -2.3,-1.6 -2.1,-3l0.4,-2.5l5.3,0.9l0.4,-2.6l-7.7,-1.4l1,-5.4c0.3,-1.6 1.8,-2.7 3.4,-2.4l7.2,1.3l-1.7,0.6l5.2,-1.9l-2,-5.4c-0.5,-1.5 -2.2,-2.3 -3.7,-1.7l-27,9.9c-1.5,0.5 -2.3,2.2 -1.7,3.7l2,5.4l8.4,-3.1l1.5,3.7l-5.8,2.3l0.8,2.3c0.5,1.2 1.8,1.9 3.1,1.4l3.8,-1.4l1.5,3.7l-5.1,1.8l0.8,2.1c0.4,1.1 1.7,1.7 2.8,1.3l3.2,-1.2l1.5,3.7l-4.3,1.6l0.7,1.9c0.4,1 1.5,1.6 2.5,1.2c0,0 0,0 0,0l6.2,-2.3l-1.5,-0.1z" id="SVGID_1_"/>
    </defs>
    <clipPath id="SVGID_2_">
     <use id="svg_3" xlink:href="#SVGID_1_"/>
    </clipPath>
    <g id="svg_4" class="st0">
     <path id="svg_5" d="m-5,-5l44.7,0l0,50.6l-44.7,0l0,-50.6z" class="st1"/>
    </g>
   </g>
   <g id="svg_6">
    <defs>
     <path d="m37.7,31l-0.7,-1.9l-4.3,1.6l-1.2,-3.8l3.2,-1.2c1.1,-0.4 1.7,-1.7 1.3,-2.8l-0.8,-2.1l-5.1,1.9l-1.1,-3.9l3.8,-1.4c1.2,-0.5 1.9,-1.8 1.4,-3.1l-0.8,-2.3l-5.8,2.1l-1.2,-3.8l3.2,-1.2l-5.6,-1c-1.1,-0.2 -2.2,0.5 -2.4,1.7l-0.8,4.5l7.7,1.4l-0.6,4.4l-5.3,-0.9l-0.6,1.6c-0.2,0.9 0.4,1.7 1.3,1.9l3.9,0.7l-0.6,4.4l-4.6,-0.8l-0.2,1.4c-0.1,0.8 0.4,1.6 1.2,1.7l3.3,0.6l-0.8,4.3l-3.9,-0.7l-0.2,1.3c-0.1,0.7 0.3,1.4 1,1.5c0,0 0,0 0,0l3,0.5l11.1,-4c1.1,-0.3 1.6,-1.4 1.2,-2.6c0.1,0.1 0,0.1 0,0l0,0z" id="SVGID_3_"/>
    </defs>
    <clipPath id="SVGID_4_">
     <use id="svg_7" xlink:href="#SVGID_3_"/>
    </clipPath>
    <g id="svg_8" class="st2">
     <path id="svg_9" d="m15.6,3.2l27.3,0l0,39.4l-27.3,0l0,-39.4z" class="st1"/>
    </g>
   </g>
   <g id="svg_10">
    <defs>
     <path d="m40,41.1c-0.1,0 -0.3,0 -0.4,0l-15.8,-2.8l1.7,-0.6l14.3,2.5c0.7,0.1 1.4,-0.3 1.5,-1c0,0 0,0 0,0l0.2,-1.3l-3.9,-0.7l0.9,-4.3l3.3,0.6c0.8,0.1 1.6,-0.4 1.7,-1.2l0.3,-1.4l-4.7,-0.9l0.9,-4.3l3.9,0.7c0.9,0.2 1.7,-0.4 1.9,-1.3l0.3,-1.6l-5.3,-0.9l0.9,-4.3l7.7,1.4l0.8,-4.5c0.2,-1.1 -0.5,-2.2 -1.7,-2.4l-19.1,-3.5l1.7,-0.6l17.5,3.1c1.6,0.3 2.7,1.8 2.4,3.4l-0.9,5.4l-7.7,-1.4l-0.6,2.5l5.3,0.9l-0.4,2.5c-0.2,1.4 -1.6,2.3 -2.9,2.1l-3,-0.5l-0.6,2.5l4.6,0.8l-0.4,2.3c-0.2,1.3 -1.5,2.2 -2.8,1.9l-2.4,-0.4l-0.6,2.5l3.9,0.7l-0.4,2.2c-0.1,1.1 -1.1,1.9 -2.1,1.9l0,0z" id="SVGID_5_"/>
    </defs>
    <clipPath id="SVGID_6_">
     <use id="svg_11" xlink:href="#SVGID_5_"/>
    </clipPath>
    <g id="svg_12" class="st3">
     <path id="svg_13" d="m18.8,3.6l37.3,0l0,42.5l-37.3,0l0,-42.5z" class="st1"/>
    </g>
   </g>
   <g id="svg_14">
    <path id="svg_15" d="m77,8.9c0,1.3 -0.4,2.4 -1.3,3.2c-0.9,0.8 -2.1,1.4 -3.6,1.6l0,0.1c1.8,0.2 3.1,0.7 4,1.6c0.9,0.8 1.4,1.9 1.4,3.2c0,1.9 -0.7,3.3 -2.2,4.4c-1.5,1 -3.5,1.6 -6,1.6c-2.7,0 -4.8,-0.4 -6.4,-1.1l0,-2.9c0.9,0.4 1.9,0.7 3,1c1.1,0.2 2.1,0.3 3,0.3c3.5,0 5.3,-1.1 5.3,-3.4c0,-1.1 -0.5,-1.9 -1.6,-2.4c-1.1,-0.6 -2.6,-0.8 -4.7,-0.8l-2.4,0l0,-2.6l2.3,0c4,0 6,-1.1 6,-3.2c0,-0.8 -0.3,-1.5 -1,-2c-0.7,-0.5 -1.6,-0.7 -2.9,-0.7c-1,0 -1.9,0.1 -2.8,0.4c-0.9,0.3 -1.8,0.7 -2.7,1.3l-1.5,-2.5c2.1,-1.4 4.5,-2.1 7.2,-2.1c2.1,0 3.8,0.5 5,1.4s1.9,2.1 1.9,3.6z"/>
    <path id="svg_16" d="m93.9,24.2l-2,-5.6l-7.6,0l-2,5.6l-3.4,0l7.5,-20.1l3.6,0l7.5,20.1l-3.6,0zm-2.8,-8.4l-1.9,-5.4c-0.1,-0.4 -0.3,-0.9 -0.6,-1.7c-0.2,-0.8 -0.4,-1.4 -0.5,-1.7c-0.2,1.1 -0.6,2.3 -1.1,3.7l-1.8,5.2l5.9,0l0,-0.1z"/>
    <path id="svg_17" d="m111.9,4.2l0,2.8l-8.6,0l0,17.2l-3.3,0l0,-20l11.9,0z"/>
    <path id="svg_18" d="m130.2,24.2l-3.3,0l0,-17.2l-5.7,0c-0.7,5.8 -1.3,9.8 -1.7,11.9c-0.4,2.1 -1,3.6 -1.8,4.4c-0.8,0.8 -1.8,1.2 -3.1,1.2c-0.7,0 -1.3,-0.1 -1.9,-0.3l0,-2.7c0.5,0.2 1,0.3 1.5,0.3c0.7,0 1.2,-0.4 1.5,-1.2c0.4,-0.8 0.8,-2.5 1.2,-5.2c0.4,-2.7 1,-6.4 1.6,-11.2l11.7,0l0,20z"/>
    <path id="svg_19" d="m150.7,4.2l-6.3,14.2c-0.8,1.7 -1.5,3 -2.1,3.8s-1.4,1.4 -2.2,1.7s-1.9,0.5 -3.1,0.5c-1.1,0 -2,-0.1 -2.9,-0.4l0,-2.9c0.9,0.4 1.8,0.5 2.8,0.5c0.8,0 1.5,-0.2 2.1,-0.6c0.6,-0.4 1.1,-1.1 1.5,-2.2l-7.5,-14.6l3.5,0l4.9,10c0.4,0.9 0.7,1.6 0.8,1.9l0.1,0c0.1,-0.2 0.2,-0.6 0.4,-1.1l4.5,-10.8l3.5,0z"/>
    <path id="svg_20" d="m167.1,21.4l7.2,0l0,-17.2l3.3,0l0,20l-24.3,0l0,-20l3.3,0l0,17.2l7.2,0l0,-17.2l3.3,0l0,17.2z"/>
    <path id="svg_21" d="m198.2,24.2l-3.8,0l-8.3,-10.2l0,10.1l-3.3,0l0,-20l3.3,0l0,9.7l8.1,-9.7l3.6,0l-8.1,9.7l8.5,10.4z"/>
    <path id="svg_22" d="m213.2,24.2l-2,-5.6l-7.6,0l-2,5.6l-3.4,0l7.5,-20.1l3.6,0l7.5,20.1l-3.6,0zm-2.8,-8.4l-1.9,-5.4c-0.1,-0.4 -0.3,-0.9 -0.6,-1.7c-0.2,-0.8 -0.4,-1.4 -0.5,-1.7c-0.2,1.1 -0.6,2.3 -1.1,3.7l-1.8,5.2l5.9,0l0,-0.1z"/>
    <path id="svg_23" d="m218.5,22.5c0,-0.7 0.2,-1.2 0.5,-1.5s0.8,-0.5 1.5,-0.5c0.7,0 1.2,0.2 1.5,0.6s0.5,0.9 0.5,1.5c0,0.6 -0.2,1.2 -0.5,1.5s-0.9,0.6 -1.5,0.6s-1.2,-0.2 -1.5,-0.6s-0.5,-1 -0.5,-1.6z"/>
    <path id="svg_24" d="m240.3,10.2c0,2.1 -0.7,3.7 -2.1,4.8c-1.4,1.1 -3.3,1.7 -5.8,1.7l-2.1,0l0,7.5l-3.3,0l0,-20l5.8,0c2.5,0 4.4,0.5 5.6,1.5c1.2,1 1.9,2.5 1.9,4.5zm-10,3.7l1.7,0c1.7,0 2.9,-0.3 3.7,-0.9c0.8,-0.6 1.2,-1.5 1.2,-2.7c0,-1.1 -0.4,-2 -1.1,-2.6c-0.7,-0.6 -1.8,-0.8 -3.3,-0.8l-2.3,0l0,7l0.1,0z"/>
    <path id="svg_25" d="m259.5,4.2l-6.3,14.2c-0.8,1.7 -1.5,3 -2.1,3.8s-1.4,1.4 -2.2,1.7s-1.9,0.5 -3.1,0.5c-1.1,0 -2,-0.1 -2.9,-0.4l0,-2.9c0.9,0.4 1.8,0.5 2.8,0.5c0.8,0 1.5,-0.2 2.1,-0.6c0.6,-0.4 1.1,-1.1 1.5,-2.2l-7.4,-14.6l3.5,0l4.9,10c0.4,0.9 0.7,1.6 0.8,1.9l0.1,0c0.1,-0.2 0.2,-0.6 0.4,-1.1l4.4,-10.8l3.5,0z"/>
   </g>
   <g id="svg_26">
    <path id="svg_27" d="m70.1,33.4l0,7.2l-1.5,0l0,-6l-3.2,0l0,6l-1.5,0l0,-7.2l6.2,0z"/>
    <path id="svg_28" d="m75.9,40.7c-0.9,0 -1.6,-0.3 -2.1,-1l-0.1,0c0.1,0.6 0.1,1 0.1,1.1l0,2.9l-1.5,0l0,-10.3l1.2,0c0,0.1 0.1,0.5 0.2,1l0.1,0c0.5,-0.7 1.2,-1.1 2.1,-1.1c0.9,0 1.6,0.3 2.1,1s0.8,1.6 0.8,2.7s-0.3,2 -0.8,2.7c-0.5,0.6 -1.2,1 -2.1,1zm-0.4,-6.2c-0.6,0 -1,0.2 -1.3,0.5s-0.4,0.9 -0.4,1.7l0,0.2c0,0.9 0.1,1.5 0.4,1.9s0.7,0.6 1.4,0.6c0.5,0 0.9,-0.2 1.2,-0.6s0.4,-1 0.4,-1.9c0,-0.8 -0.1,-1.4 -0.4,-1.8c-0.3,-0.4 -0.7,-0.6 -1.3,-0.6z"/>
    <path id="svg_29" d="m86.9,36.9c0,1.2 -0.3,2.1 -0.9,2.7c-0.6,0.7 -1.4,1 -2.5,1c-0.7,0 -1.3,-0.2 -1.8,-0.5c-0.5,-0.3 -0.9,-0.7 -1.2,-1.3c-0.3,-0.6 -0.4,-1.2 -0.4,-2c0,-1.2 0.3,-2.1 0.9,-2.7s1.4,-1 2.5,-1c1,0 1.9,0.3 2.5,1c0.6,0.8 0.9,1.7 0.9,2.8zm-5.2,0c0,1.7 0.6,2.5 1.8,2.5c1.2,0 1.8,-0.8 1.8,-2.5c0,-1.6 -0.6,-2.5 -1.8,-2.5c-0.6,0 -1.1,0.2 -1.4,0.6c-0.3,0.5 -0.4,1.1 -0.4,1.9z"/>
    <path id="svg_30" d="m90.1,33.4l0,3.6c0,0.4 0,1.1 -0.1,1.9l3.6,-5.6l1.9,0l0,7.2l-1.5,0l0,-3.6c0,-0.2 0,-0.5 0,-1s0,-0.8 0.1,-1l-3.6,5.6l-1.9,0l0,-7.2l1.5,0l0,0.1z"/>
    <path id="svg_31" d="m99.3,36.2c0.7,0 1.2,-0.1 1.5,-0.2c0.3,-0.2 0.5,-0.4 0.5,-0.7c0,-0.6 -0.5,-0.9 -1.6,-0.9c-0.7,0 -1.4,0.2 -2.1,0.5l-0.5,-1.1c0.8,-0.3 1.8,-0.5 2.8,-0.5c0.9,0 1.6,0.2 2.1,0.5c0.5,0.3 0.7,0.8 0.7,1.4c0,0.8 -0.5,1.3 -1.4,1.6l0,0.1c0.6,0.2 1,0.4 1.2,0.7s0.4,0.6 0.4,1.1c0,0.7 -0.3,1.2 -0.9,1.6c-0.6,0.4 -1.4,0.6 -2.4,0.6c-1.1,0 -2,-0.1 -2.6,-0.4l0,-1.3c0.8,0.4 1.6,0.6 2.5,0.6c0.6,0 1.1,-0.1 1.4,-0.3s0.5,-0.4 0.5,-0.8c0,-0.4 -0.2,-0.6 -0.5,-0.8c-0.3,-0.2 -0.8,-0.3 -1.5,-0.3l-0.9,0l0,-1.1l0.8,0l0,-0.3z"/>
    <path id="svg_32" d="m110.8,35.2c0,0.8 -0.5,1.4 -1.5,1.5l0,0.1c0.6,0.1 1,0.2 1.3,0.5c0.3,0.3 0.4,0.7 0.4,1.1c0,0.7 -0.3,1.2 -0.8,1.6c-0.5,0.4 -1.3,0.5 -2.3,0.5l-3.4,0l0,-7.2l3.4,0c2,0.1 2.9,0.7 2.9,1.9zm-1.5,0.1c0,-0.3 -0.1,-0.5 -0.3,-0.6s-0.6,-0.2 -1,-0.2l-1.9,0l0,1.7l1.6,0c0.5,0 0.9,-0.1 1.2,-0.2c0.3,-0.1 0.4,-0.3 0.4,-0.7zm0.2,3c0,-0.3 -0.1,-0.6 -0.4,-0.7s-0.7,-0.2 -1.2,-0.2l-1.8,0l0,2l1.8,0c1.1,0 1.6,-0.3 1.6,-1.1z"/>
    <path id="svg_33" d="m119,36.9c0,1.2 -0.3,2.1 -0.9,2.7c-0.6,0.7 -1.4,1 -2.5,1c-0.7,0 -1.3,-0.2 -1.8,-0.5c-0.5,-0.3 -0.9,-0.7 -1.2,-1.3c-0.3,-0.6 -0.4,-1.2 -0.4,-2c0,-1.2 0.3,-2.1 0.9,-2.7s1.4,-1 2.5,-1c1,0 1.9,0.3 2.5,1c0.6,0.8 0.9,1.7 0.9,2.8zm-5.2,0c0,1.7 0.6,2.5 1.8,2.5c1.2,0 1.8,-0.8 1.8,-2.5c0,-1.6 -0.6,-2.5 -1.8,-2.5c-0.6,0 -1.1,0.2 -1.4,0.6c-0.3,0.5 -0.4,1.1 -0.4,1.9z"/>
    <path id="svg_34" d="m127.6,43.1l-1.4,0l0,-2.5l-4.9,0l0,2.5l-1.4,0l0,-3.7l0.6,0c0.5,-0.7 0.9,-1.6 1.2,-2.7s0.5,-2.2 0.5,-3.3l4.4,0l0,6l1.1,0l0,3.7l-0.1,0zm-2.5,-3.7l0,-4.8l-1.5,0c-0.1,0.9 -0.3,1.8 -0.5,2.6c-0.3,0.9 -0.6,1.6 -1,2.2l3,0z"/>
    <path id="svg_35" d="m131.9,40.7c-1.1,0 -1.9,-0.3 -2.5,-1c-0.6,-0.6 -0.8,-1.5 -0.8,-2.7c0,-1.2 0.3,-2.1 0.9,-2.8s1.4,-1 2.6,-1c0.8,0 1.4,0.1 2,0.4l-0.5,1.2c-0.6,-0.3 -1.2,-0.4 -1.6,-0.4c-1.2,0 -1.9,0.8 -1.9,2.5c0,0.8 0.2,1.4 0.5,1.8c0.3,0.4 0.8,0.6 1.4,0.6c0.7,0 1.3,-0.2 1.9,-0.5l0,1.3c-0.3,0.2 -0.6,0.3 -0.9,0.3s-0.7,0.3 -1.1,0.3z"/>
    <path id="svg_36" d="m140.9,33.4l0,1.2l-2.3,0l0,6l-1.5,0l0,-6l-2.3,0l0,-1.2l6.1,0z"/>
    <path id="svg_37" d="m148.6,35.2c0,0.8 -0.5,1.4 -1.5,1.5l0,0.1c0.6,0.1 1,0.2 1.3,0.5c0.3,0.3 0.4,0.7 0.4,1.1c0,0.7 -0.3,1.2 -0.8,1.6s-1.3,0.5 -2.3,0.5l-3.4,0l0,-7.2l3.4,0c1.9,0.1 2.9,0.7 2.9,1.9zm-1.6,0.1c0,-0.3 -0.1,-0.5 -0.3,-0.6s-0.6,-0.2 -1,-0.2l-1.9,0l0,1.7l1.6,0c0.5,0 0.9,-0.1 1.2,-0.2c0.3,-0.1 0.4,-0.3 0.4,-0.7zm0.2,3c0,-0.3 -0.1,-0.6 -0.4,-0.7s-0.7,-0.2 -1.2,-0.2l-1.8,0l0,2l1.8,0c1.1,0 1.6,-0.3 1.6,-1.1z"/>
    <path id="svg_38" d="m153.5,40.7c-1.1,0 -2,-0.3 -2.6,-1s-0.9,-1.5 -0.9,-2.7c0,-1.2 0.3,-2.1 0.9,-2.8c0.6,-0.7 1.4,-1 2.4,-1c0.9,0 1.7,0.3 2.2,0.9c0.5,0.6 0.8,1.4 0.8,2.4l0,0.8l-4.8,0c0,0.7 0.2,1.2 0.6,1.6c0.4,0.4 0.9,0.6 1.5,0.6c0.4,0 0.8,0 1.2,-0.1s0.8,-0.2 1.2,-0.4l0,1.2c-0.4,0.2 -0.7,0.3 -1.1,0.4c-0.5,0 -0.9,0.1 -1.4,0.1zm-0.3,-6.3c-0.5,0 -0.9,0.2 -1.2,0.5c-0.3,0.3 -0.5,0.8 -0.5,1.3l3.3,0c0,-0.6 -0.2,-1 -0.4,-1.3c-0.3,-0.4 -0.7,-0.5 -1.2,-0.5z"/>
    <path id="svg_39" d="m159.5,33.4l0,2.9l3.4,0l0,-2.9l1.5,0l0,7.2l-1.5,0l0,-3.1l-3.4,0l0,3.1l-1.5,0l0,-7.2l1.5,0z"/>
    <path id="svg_40" d="m168.2,33.4l0,2.9l3.4,0l0,-2.9l1.5,0l0,7.2l-1.5,0l0,-3.1l-3.4,0l0,3.1l-1.5,0l0,-7.2l1.5,0z"/>
    <path id="svg_41" d="m179.8,40.5l-0.3,-1l-0.1,0c-0.3,0.4 -0.7,0.7 -1,0.9s-0.8,0.2 -1.4,0.2c-0.7,0 -1.3,-0.2 -1.7,-0.6c-0.4,-0.4 -0.6,-0.9 -0.6,-1.6c0,-0.7 0.3,-1.3 0.8,-1.7s1.4,-0.6 2.5,-0.6l1.2,0l0,-0.4c0,-0.5 -0.1,-0.8 -0.3,-1c-0.2,-0.2 -0.5,-0.3 -1,-0.3c-0.4,0 -0.7,0.1 -1.1,0.2s-0.7,0.2 -1,0.4l-0.5,-1.1c0.4,-0.2 0.8,-0.4 1.3,-0.5c0.5,-0.1 0.9,-0.2 1.3,-0.2c0.9,0 1.6,0.2 2.1,0.6c0.5,0.4 0.7,1 0.7,1.9l0,4.8l-0.9,0zm-2.3,-1c0.6,0 1,-0.2 1.3,-0.5s0.5,-0.7 0.5,-1.3l0,-0.6l-0.9,0c-0.7,0 -1.2,0.1 -1.6,0.4c-0.3,0.2 -0.5,0.5 -0.5,1c0,0.3 0.1,0.6 0.3,0.7c0.2,0.2 0.5,0.3 0.9,0.3z"/>
    <path id="svg_42" d="m183.7,40.5l-1.7,0l2,-2.9c-0.5,-0.1 -0.9,-0.4 -1.1,-0.7c-0.3,-0.4 -0.4,-0.8 -0.4,-1.3c0,-0.7 0.2,-1.2 0.7,-1.6c0.5,-0.4 1.1,-0.6 2,-0.6l3.3,0l0,7.2l-1.5,0l0,-2.8l-1.4,0l-1.9,2.7zm0.2,-5c0,0.4 0.1,0.6 0.4,0.8c0.3,0.2 0.7,0.3 1.1,0.3l1.4,0l0,-2.1l-1.7,0c-0.4,0 -0.7,0.1 -1,0.3s-0.2,0.4 -0.2,0.7z"/>
    <path id="svg_43" d="m198.5,33.4l1.7,0l-3,3.5l3.2,3.7l-1.8,0l-3.1,-3.6l0,3.6l-1.5,0l0,-7.2l1.5,0l0,3.5l3,-3.5z"/>
    <path id="svg_44" d="m208,36.9c0,1.2 -0.3,2.1 -0.9,2.7c-0.6,0.7 -1.4,1 -2.5,1c-0.7,0 -1.3,-0.2 -1.8,-0.5c-0.5,-0.3 -0.9,-0.7 -1.2,-1.3c-0.3,-0.6 -0.4,-1.2 -0.4,-2c0,-1.2 0.3,-2.1 0.9,-2.7s1.4,-1 2.5,-1c1,0 1.9,0.3 2.5,1c0.6,0.8 0.9,1.7 0.9,2.8zm-5.2,0c0,1.7 0.6,2.5 1.8,2.5c1.2,0 1.8,-0.8 1.8,-2.5c0,-1.6 -0.6,-2.5 -1.8,-2.5c-0.6,0 -1.1,0.2 -1.4,0.6c-0.3,0.5 -0.4,1.1 -0.4,1.9z"/>
    <path id="svg_45" d="m213.9,39.1l0.1,-0.3c0.2,-0.6 0.3,-1.1 0.5,-1.5l1.6,-3.9l2,0l0,7.2l-1.4,0l0,-5.8l-0.1,0.4c-0.2,0.7 -0.4,1.2 -0.5,1.5l-1.6,3.9l-1.2,0l-1.6,-3.9c-0.2,-0.6 -0.4,-1.2 -0.6,-1.9l0,5.8l-1.4,0l0,-7.2l2,0l1.6,3.8c0.2,0.3 0.4,1 0.6,1.9z"/>
    <path id="svg_46" d="m226.5,33.4l0,7.2l-1.5,0l0,-6l-3.2,0l0,6l-1.5,0l0,-7.2l6.2,0z"/>
    <path id="svg_47" d="m233.2,40.5l-0.3,-1l-0.1,0c-0.3,0.4 -0.7,0.7 -1,0.9s-0.8,0.2 -1.4,0.2c-0.7,0 -1.3,-0.2 -1.7,-0.6c-0.4,-0.4 -0.6,-0.9 -0.6,-1.6c0,-0.7 0.3,-1.3 0.8,-1.7s1.4,-0.6 2.5,-0.6l1.2,0l0,-0.4c0,-0.5 -0.1,-0.8 -0.3,-1c-0.2,-0.2 -0.5,-0.3 -1,-0.3c-0.4,0 -0.7,0.1 -1.1,0.2s-0.7,0.2 -1,0.4l-0.5,-1.1c0.4,-0.2 0.8,-0.4 1.3,-0.5c0.5,-0.1 0.9,-0.2 1.3,-0.2c0.9,0 1.6,0.2 2.1,0.6c0.5,0.4 0.7,1 0.7,1.9l0,4.8l-0.9,0zm-2.3,-1c0.6,0 1,-0.2 1.3,-0.5s0.5,-0.7 0.5,-1.3l0,-0.6l-0.9,0c-0.7,0 -1.2,0.1 -1.6,0.4c-0.3,0.2 -0.5,0.5 -0.5,1c0,0.3 0.1,0.6 0.3,0.7c0.3,0.2 0.6,0.3 0.9,0.3z"/>
    <path id="svg_48" d="m238,33.4l0,2.9l3.4,0l0,-2.9l1.5,0l0,7.2l-1.5,0l0,-3.1l-3.4,0l0,3.1l-1.5,0l0,-7.2l1.5,0z"/>
    <path id="svg_49" d="m246.5,33.4l0,3.6c0,0.4 0,1.1 -0.1,1.9l3.6,-5.6l1.9,0l0,7.2l-1.5,0l0,-3.6c0,-0.2 0,-0.5 0,-1s0,-0.8 0.1,-1l-3.6,5.6l-1.9,0l0,-7.2l1.5,0l0,0.1z"/>
    <path id="svg_50" d="m254.8,40.5l-1.7,0l2,-2.9c-0.5,-0.1 -0.9,-0.4 -1.1,-0.7c-0.3,-0.4 -0.4,-0.8 -0.4,-1.3c0,-0.7 0.2,-1.2 0.7,-1.6c0.5,-0.4 1.1,-0.6 2,-0.6l3.3,0l0,7.2l-1.6,0l0,-2.8l-1.4,0l-1.8,2.7zm0.2,-5c0,0.4 0.1,0.6 0.4,0.8c0.3,0.2 0.7,0.3 1.1,0.3l1.4,0l0,-2.1l-1.7,0c-0.4,0 -0.7,0.1 -1,0.3s-0.2,0.4 -0.2,0.7z"/>
   </g>
  </g>
  <rect id="svg_54" height="25.499988" width="34.999984" y="1.463293" x="223.62496" stroke-width="1.5" stroke="#000" fill="#fff"/>
  <path d="m228.624954,6.463291c0,0.25 0,0.25 0,1c0,0.5 0,1 0,1.249999c0,0 0,0.25 0,0.25c-0.25,0.25 -0.25,0.75 -0.25,1c0,0.5 -0.25,0.999999 -0.25,1.249999c0,0.25 0,0.25 0,0.5c0,0 0,0 0,0c-0.25,0.5 -0.25,0.999999 -0.25,1.499999c0,0.75 0,1.25 0,1.5c0,0.499999 0,0.749999 0,1.249999c0,0.499999 0.058655,1.03806 0.25,1.499999c0.1353,0.326641 0.154327,0.76903 0.25,1c0.1353,0.326641 0.154327,0.26903 0.25,0.5c0.1353,0.326641 0.543274,0.713181 0.75,0.999998c0.326859,0.453499 0.404327,0.76903 0.5,1c0.1353,0.326641 0.423355,0.6147 0.75,0.75c0.230972,0.095671 0.25,0.25 0.5,0.25c0,0 0,0 0.25,0c0,0 0.25,0 0.5,0c0.25,0 0.5,-0.25 0.5,-0.25c0.25,-0.25 0.273865,-0.744335 0.5,-1.75c0.279663,-1.243696 0.778961,-2.490957 1,-3.249998c0.288193,-0.989668 0.5,-1.249999 0.5,-1.499999c0,0 -0.057434,-0.006688 0,-0.25c0.128433,-0.544062 0.25,-1.249999 0.25,-2.249999c0,-0.749999 0,-1.249999 0,-1.499999c0,0 0,0 0,0c0,-0.25 -0.114883,-0.263375 0,-0.749999c0.128433,-0.544063 0.25,-0.75 0.25,-1c0,0 0,-0.25 0,-0.25c0,0 0,0 0,-0.25c0,0 0,-0.25 0.25,-0.499999c0,0 0.25,-0.25 0,-0.25c-0.25,0 0,0.25 0,0.999999c0,0.75 0.120132,1.759684 0,2.499999c-0.126633,0.780361 -0.373367,1.219638 -0.5,1.999999c-0.080093,0.493544 0,0.75 0,1c0,0.249999 0,0.749999 0,1.249999c0,0.499999 0,0.749999 0,0.749999c0,0.25 0,0.25 0,0.25c0,0.5 -0.191345,1.038061 0,1.5c0.1353,0.326641 0.25,0.5 0.25,0.75c0,0 0,0 0.25,0c0,0 0.019028,0.154329 0.25,0.25c0.326645,0.135298 0.423355,0.614698 0.75,0.749998c0.230972,0.095671 0.5,0.25 0.5,0.25c0,0 0,0 0.25,0c0.25,0 0.5,0 0.5,0c0,0 0.25,0 0.25,0c0,0 0.25,0 0.25,0l0,0" id="svg_55" stroke-width="1.5" stroke="#000" fill="none"/>
  <path d="m241.374954,5.963291c0.25,0 0.5,0 1.25,0c0.75,0 1.5,0 2,0c0.75,0 1,0 1.25,0c0,0 0.25,0 0.75,0c0.75,0 1.5,0 2.5,0c0.75,0 1,0 1.25,0c0,0 0.25,0 0.25,0c0,0 0.5,0 0.749985,0c0.75,0 1,0 1.25,0c0.25,0 0.25,0 0.25,0.25c0,0 -0.46199,0.769923 -1,1.75c-0.701462,1.277857 -1.346252,2.593002 -1.999985,3.499998c-0.413452,0.573635 -0.823227,0.823223 -1,1c-0.176773,0.176776 0,0.249999 -0.25,0.499999c-0.5,0.5 -1.25,1.25 -2.25,2.249999c-0.25,0.25 -0.5,0.5 -0.5,0.5c0,0.25 0,0.25 -0.25,0.25c0,0 -0.154327,0.519029 -0.25,0.749999c-0.1353,0.326641 -0.25,0.5 -0.25,0.5c0,0.25 0,0.25 0,0.25c-0.25,0 -0.371567,0.205936 -0.5,0.75c-0.057434,0.243313 -0.154327,0.51903 -0.25,0.75c-0.1353,0.326641 -0.25,0.25 -0.25,0.5c0,0.249998 -0.25,0.249998 -0.25,0.249998c0,0.25 -0.173141,0.546501 -0.5,1c-0.206726,0.286818 -0.5,0.5 -0.75,0.75c0,0 0,0.25 -0.25,0.25c0,0 0.173355,-0.1147 0.5,-0.25c0.461945,-0.191341 1,-0.25 1.25,-0.25c0.5,0 0.75,0 1,0c0.25,0 0.5,0 0.5,0c0.25,0 0.25,0 0.5,0c0.25,0 0.75,0 1.5,0c1,0 1.5,0 1.75,0c0,0 0.25,0 0.25,0c0,-0.25 0.25,-0.25 0.5,-0.25c0.25,0 0.763382,0.114874 1.249985,0c0.544067,-0.128435 0.75,-0.25 0.75,-0.25c0.25,0 0.25,0 0.25,0c0.25,0 0.25,0 0.25,0c0,0 0.25,0 0.25,0c0.25,0 0.25,0 0.5,0l0,0l0,0" id="svg_56" stroke-width="1.5" stroke="#000" fill="none"/>
 </g>
</svg>